REM DIRINDEX 1\2\6,1\2\7,1\2\8,1\2\9,1\3\10,1\3\11,1\4\12,1\4\13,1\4\14,1\5\15,1\5\16,1\5\17
REM DIRNAME folder01,folder02,folder03,folder04,folder05,folder06,folder07,folder08,folder09,folder10,folder11,folder12,folder13,folder14,folder15,folder16,folder17
TITLE ""
FILE "1400_3_sec10_0968_0984.mp3" MP3
  TRACK 01 AUDIO
    TITLE "0:"
    INDEX 01 00:00:00
  TRACK 02 AUDIO
    TITLE "17:cjc029_6372"
    INDEX 01 00:00:15
  TRACK 03 AUDIO
    TITLE "0:"
    INDEX 01 00:01:05
  TRACK 04 AUDIO
    TITLE "16:cjc029_6373"
    INDEX 01 00:01:09
  TRACK 05 AUDIO
    TITLE "0:"
    INDEX 01 00:02:06
  TRACK 06 AUDIO
    TITLE "17:cjc029_6374"
    INDEX 01 00:02:67
  TRACK 07 AUDIO
    TITLE "0:"
    INDEX 01 00:04:74
  TRACK 08 AUDIO
    TITLE "16:cjc029_6375"
    INDEX 01 00:05:12
  TRACK 09 AUDIO
    TITLE "0:"
    INDEX 01 00:06:33
  TRACK 10 AUDIO
    TITLE "17:cjc029_6376"
    INDEX 01 00:07:17
  TRACK 11 AUDIO
    TITLE "0:"
    INDEX 01 00:08:23
  TRACK 12 AUDIO
    TITLE "16:cjc029_6377"
    INDEX 01 00:08:28
  TRACK 13 AUDIO
    TITLE "0:"
    INDEX 01 00:09:40
  TRACK 14 AUDIO
    TITLE "17:cjc029_6378"
    INDEX 01 00:10:25
  TRACK 15 AUDIO
    TITLE "0:"
    INDEX 01 00:11:39
  TRACK 16 AUDIO
    TITLE "16:cjc029_6379"
    INDEX 01 00:11:50
  TRACK 17 AUDIO
    TITLE "0:"
    INDEX 01 00:12:38
  TRACK 18 AUDIO
    TITLE "17:cjc029_6380"
    INDEX 01 00:13:33
  TRACK 19 AUDIO
    TITLE "0:"
    INDEX 01 00:14:74
  TRACK 20 AUDIO
    TITLE "16:cjc029_6381"
    INDEX 01 00:15:05
  TRACK 21 AUDIO
    TITLE "0:"
    INDEX 01 00:16:44
  TRACK 22 AUDIO
    TITLE "17:cjc029_6382"
    INDEX 01 00:17:27
  TRACK 23 AUDIO
    TITLE "0:"
    INDEX 01 00:18:42
  TRACK 24 AUDIO
    TITLE "16:cjc029_6383"
    INDEX 01 00:18:50
  TRACK 25 AUDIO
    TITLE "0:"
    INDEX 01 00:20:08
  TRACK 26 AUDIO
    TITLE "17:cjc029_6384"
    INDEX 01 00:20:69
  TRACK 27 AUDIO
    TITLE "0:"
    INDEX 01 00:23:32
  TRACK 28 AUDIO
    TITLE "16:cjc029_6385"
    INDEX 01 00:23:36
  TRACK 29 AUDIO
    TITLE "0:"
    INDEX 01 00:24:55
  TRACK 30 AUDIO
    TITLE "17:cjc029_6386"
    INDEX 01 00:25:43
  TRACK 31 AUDIO
    TITLE "0:"
    INDEX 01 00:26:44
  TRACK 32 AUDIO
    TITLE "16:cjc029_6387"
    INDEX 01 00:26:52
  TRACK 33 AUDIO
    TITLE "0:"
    INDEX 01 00:27:61
  TRACK 34 AUDIO
    TITLE "17:cjc029_6388"
    INDEX 01 00:28:47
  TRACK 35 AUDIO
    TITLE "0:"
    INDEX 01 00:29:38
  TRACK 36 AUDIO
    TITLE "16:cjc029_6389"
    INDEX 01 00:29:46
  TRACK 37 AUDIO
    TITLE "0:"
    INDEX 01 00:30:59
  TRACK 38 AUDIO
    TITLE "17:cjc029_6390"
    INDEX 01 00:31:41
  TRACK 39 AUDIO
    TITLE "0:"
    INDEX 01 00:32:54
  TRACK 40 AUDIO
    TITLE "16:cjc029_6391"
    INDEX 01 00:32:58
  TRACK 41 AUDIO
    TITLE "0:"
    INDEX 01 00:34:02
  TRACK 42 AUDIO
    TITLE "17:cjc029_6392"
    INDEX 01 00:34:61
  TRACK 43 AUDIO
    TITLE "0:"
    INDEX 01 00:37:14
  TRACK 44 AUDIO
    TITLE "16:cjc029_6393"
    INDEX 01 00:37:18
  TRACK 45 AUDIO
    TITLE "0:"
    INDEX 01 00:38:26
  TRACK 46 AUDIO
    TITLE "17:cjc029_6394"
    INDEX 01 00:39:13
  TRACK 47 AUDIO
    TITLE "0:"
    INDEX 01 00:40:30
  TRACK 48 AUDIO
    TITLE "16:cjc029_6395"
    INDEX 01 00:40:36
  TRACK 49 AUDIO
    TITLE "0:"
    INDEX 01 00:41:49
  TRACK 50 AUDIO
    TITLE "17:cjc029_6396"
    INDEX 01 00:42:33
  TRACK 51 AUDIO
    TITLE "0:"
    INDEX 01 00:43:42
  TRACK 52 AUDIO
    TITLE "16:cjc029_6397"
    INDEX 01 00:43:48
  TRACK 53 AUDIO
    TITLE "0:"
    INDEX 01 00:44:56
  TRACK 54 AUDIO
    TITLE "17:cjc029_6398"
    INDEX 01 00:45:43
  TRACK 55 AUDIO
    TITLE "0:"
    INDEX 01 00:48:61
  TRACK 56 AUDIO
    TITLE "16:cjc029_6399"
    INDEX 01 00:48:65
  TRACK 57 AUDIO
    TITLE "0:"
    INDEX 01 00:49:74
  TRACK 58 AUDIO
    TITLE "17:cjc029_6400"
    INDEX 01 00:50:56
  TRACK 59 AUDIO
    TITLE "0:"
    INDEX 01 00:51:71
  TRACK 60 AUDIO
    TITLE "16:cjc029_6401"
    INDEX 01 00:52:00
  TRACK 61 AUDIO
    TITLE "0:"
    INDEX 01 00:53:21
  TRACK 62 AUDIO
    TITLE "17:cjc029_6402"
    INDEX 01 00:54:03
  TRACK 63 AUDIO
    TITLE "0:"
    INDEX 01 00:55:28
  TRACK 64 AUDIO
    TITLE "16:cjc029_6403"
    INDEX 01 00:55:34
  TRACK 65 AUDIO
    TITLE "0:"
    INDEX 01 00:56:47
  TRACK 66 AUDIO
    TITLE "17:cjc029_6404"
    INDEX 01 00:57:37
  TRACK 67 AUDIO
    TITLE "0:"
    INDEX 01 01:00:33
  TRACK 68 AUDIO
    TITLE "16:cjc029_6405"
    INDEX 01 01:00:39
  TRACK 69 AUDIO
    TITLE "0:"
    INDEX 01 01:01:52
